<?xml version="1.0" encoding="UTF-8"?>
<svg version="1.1" xmlns="http://www.w3.org/2000/svg" width="39" height="39">
<path d="M0 0 C4.95 0 9.9 0 15 0 C15 3.63 15 7.26 15 11 C18.63 11 22.26 11 26 11 C26 15.95 26 20.9 26 26 C22.37 26 18.74 26 15 26 C15 29.96 15 33.92 15 38 C9.72 38 4.44 38 -1 38 C-1 34.04 -1 30.08 -1 26 C-4.63 26 -8.26 26 -12 26 C-12 21.05 -12 16.1 -12 11 C-8.04 11 -4.08 11 0 11 C0 7.37 0 3.74 0 0 Z M0 16 C-0.58610371 18.32828629 -0.58610371 18.32828629 0 21 C1.84466837 22.98449746 3.79240863 24.39029796 6 26 C10.6240568 24.38093143 10.6240568 24.38093143 14 21 C14.33374277 18.41583753 14.33374277 18.41583753 14 16 C12.91830354 14.69452245 12.91830354 14.69452245 10.3125 14.8671875 C9.219375 14.86976562 8.12625 14.87234375 7 14.875 C5.906875 14.87242188 4.81375 14.86984375 3.6875 14.8671875 C1.08169646 14.69452245 1.08169646 14.69452245 0 16 Z " fill="#159E83" transform="translate(12,1)"/>
<path d="M0 0 C4.29 0 8.58 0 13 0 C13 3.63 13 7.26 13 11 C16.63 11 20.26 11 24 11 C24 15.29 24 19.58 24 24 C23.67 24 23.34 24 23 24 C23 20.04 23 16.08 23 12 C20.03 12 17.06 12 14 12 C14 12.66 14 13.32 14 14 C11.8537974 13.85970581 9.70803782 13.71261836 7.5625 13.5625 C6.36753906 13.48128906 5.17257813 13.40007813 3.94140625 13.31640625 C1 13 1 13 0 12 C-0.14355117 7.99779347 -0.04216403 4.00558317 0 0 Z " fill="#05987B" transform="translate(13,2)"/>
<path d="M0 0 C4.95 0 9.9 0 15 0 C15 3.63 15 7.26 15 11 C18.63 11 22.26 11 26 11 C26 15.95 26 20.9 26 26 C22.37 26 18.74 26 15 26 C15 29.96 15 33.92 15 38 C9.72 38 4.44 38 -1 38 C-1 34.04 -1 30.08 -1 26 C-0.67 26 -0.34 26 0 26 C0 29.63 0 33.26 0 37 C4.62 37 9.24 37 14 37 C14 33.04 14 29.08 14 25 C17.63 25 21.26 25 25 25 C25 20.71 25 16.42 25 12 C21.37 12 17.74 12 14 12 C14 8.37 14 4.74 14 1 C9.71 1 5.42 1 1 1 C1.33 4.96 1.66 8.92 2 13 C7.445 13.495 7.445 13.495 13 14 C13 14.33 13 14.66 13 15 C8.61414671 15.70173653 4.44209357 16.10834375 0 16 C0 14.68 0 13.36 0 12 C-3.63 12 -7.26 12 -11 12 C-11 16.62 -11 21.24 -11 26 C-11.33 26 -11.66 26 -12 26 C-12 21.05 -12 16.1 -12 11 C-8.04 11 -4.08 11 0 11 C0 7.37 0 3.74 0 0 Z " fill="#B5D8D0" transform="translate(12,1)"/>
<path d="M0 0 C3.63 0 7.26 0 11 0 C11 4.29 11 8.58 11 13 C4.06640625 13.09765625 4.06640625 13.09765625 2 13 C0.18884044 11.18884044 0.61800552 8.38721773 0.4375 5.9375 C0.35371094 4.83277344 0.26992188 3.72804688 0.18359375 2.58984375 C0.09271484 1.30787109 0.09271484 1.30787109 0 0 Z " fill="#0A9B7D" transform="translate(1,13)"/>
<path d="M0 0 C2.97 0 5.94 0 9 0 C9 3.96 9 7.92 9 12 C7.741875 11.835 6.48375 11.67 5.1875 11.5 C2.73543415 11.17841759 0.48349306 11 -2 11 C-2.99 11 -3.98 11 -5 11 C-4.505 10.62875 -4.01 10.2575 -3.5 9.875 C-1.40244486 7.25305607 -1.78256165 5.26157528 -2 2 C-1.34 2 -0.68 2 0 2 C0 1.34 0 0.68 0 0 Z " fill="#1BA288" transform="translate(27,14)"/>
<path d="M0 0 C4.62 0 9.24 0 14 0 C14 0.33 14 0.66 14 1 C9.71 1 5.42 1 1 1 C1.33 4.96 1.66 8.92 2 13 C7.445 13.495 7.445 13.495 13 14 C13 14.33 13 14.66 13 15 C8.61414671 15.70173653 4.44209357 16.10834375 0 16 C0 14.68 0 13.36 0 12 C-3.63 12 -7.26 12 -11 12 C-11 16.62 -11 21.24 -11 26 C-11.33 26 -11.66 26 -12 26 C-12 21.05 -12 16.1 -12 11 C-8.04 11 -4.08 11 0 11 C0 7.37 0 3.74 0 0 Z " fill="#98CBC1" transform="translate(12,1)"/>
<path d="M0 0 C3 1 3 1 6 3 C4.02 3 2.04 3 0 3 C-0.33 4.32 -0.66 5.64 -1 7 C-1.66 5.68 -2.32 4.36 -3 3 C-2.01 2.01 -1.02 1.02 0 0 Z " fill="#049776" transform="translate(26,23)"/>
</svg>
